<svg id="Lager_1" data-name="Lager 1" xmlns="http://www.w3.org/2000/svg" xmlns:xlink="http://www.w3.org/1999/xlink" viewBox="0 0 299.38 300"><defs><style>.cls-1{fill:none;}.cls-2{fill:#8e8e8e;}.cls-3{fill:url(#Namnlös_övertoning_92);}.cls-4{fill:url(#Namnlös_övertoning_94);}</style><linearGradient id="Namnlös_övertoning_92" x1="132.04" y1="177.55" x2="259.23" y2="-12" gradientUnits="userSpaceOnUse"><stop offset="0" stop-color="#8e8e8e"/><stop offset="0.16" stop-color="#898989" stop-opacity="0.95"/><stop offset="0.42" stop-color="#7d7d7d" stop-opacity="0.82"/><stop offset="0.74" stop-color="#696969" stop-opacity="0.6"/><stop offset="1" stop-color="#575756" stop-opacity="0.4"/></linearGradient><linearGradient id="Namnlös_övertoning_94" x1="204.12" y1="105.28" x2="-24.48" y2="296.18" gradientUnits="userSpaceOnUse"><stop offset="0" stop-color="#8e8e8e"/><stop offset="0.44" stop-color="#8d8d8d" stop-opacity="0.99"/><stop offset="0.6" stop-color="#8a8a89" stop-opacity="0.95"/><stop offset="0.72" stop-color="#848483" stop-opacity="0.89"/><stop offset="0.81" stop-color="#7b7b7b" stop-opacity="0.79"/><stop offset="0.89" stop-color="#70706f" stop-opacity="0.67"/><stop offset="0.96" stop-color="#626261" stop-opacity="0.52"/><stop offset="1" stop-color="#575756" stop-opacity="0.4"/></linearGradient></defs><title>circles</title><rect class="cls-1" width="299.38" height="300"/><g id="cirklar"><path class="cls-2" d="M225,150.08a74.52,74.52,0,1,1-74.52-74.51V53.1a97,97,0,1,0,97,97Z"/><path class="cls-3" d="M225,150.08a74.52,74.52,0,1,1-74.52-74.51V53.1a97,97,0,1,0,97,97Z"/><path class="cls-2" d="M264.89,150.08A114.43,114.43,0,1,1,150.47,35.66V1.17C68.36,1.17,1.55,68,1.55,150.08S68.36,299,150.47,299s148.91-66.8,148.91-148.92Z"/><path class="cls-4" d="M264.89,150.08A114.43,114.43,0,1,1,150.47,35.66V1.17C68.36,1.17,1.55,68,1.55,150.08S68.36,299,150.47,299s148.91-66.8,148.91-148.92Z"/></g></svg>