<svg id="Lager_1" data-name="Lager 1" xmlns="http://www.w3.org/2000/svg" xmlns:xlink="http://www.w3.org/1999/xlink" viewBox="0 0 299.38 300"><defs><style>.cls-1{fill:none;}.cls-2{fill:#8e8e8e;}.cls-3{fill:url(#Namnlös_övertoning_92);}.cls-4{fill:url(#Namnlös_övertoning_94);}.cls-5{fill:#0a4f00;}.cls-6{fill:url(#Namnlös_övertoning_70);}.cls-7{fill:url(#Namnlös_övertoning_73);}.cls-8{fill:url(#Namnlös_övertoning_21);}</style><linearGradient id="Namnlös_övertoning_92" x1="132.04" y1="177.55" x2="259.23" y2="-12" gradientUnits="userSpaceOnUse"><stop offset="0" stop-color="#8e8e8e"/><stop offset="0.16" stop-color="#898989" stop-opacity="0.95"/><stop offset="0.42" stop-color="#7d7d7d" stop-opacity="0.82"/><stop offset="0.74" stop-color="#696969" stop-opacity="0.6"/><stop offset="1" stop-color="#575756" stop-opacity="0.4"/></linearGradient><linearGradient id="Namnlös_övertoning_94" x1="204.12" y1="105.28" x2="-24.48" y2="296.18" gradientUnits="userSpaceOnUse"><stop offset="0" stop-color="#8e8e8e"/><stop offset="0.44" stop-color="#8d8d8d" stop-opacity="0.99"/><stop offset="0.6" stop-color="#8a8a89" stop-opacity="0.95"/><stop offset="0.72" stop-color="#848483" stop-opacity="0.89"/><stop offset="0.81" stop-color="#7b7b7b" stop-opacity="0.79"/><stop offset="0.89" stop-color="#70706f" stop-opacity="0.67"/><stop offset="0.96" stop-color="#626261" stop-opacity="0.52"/><stop offset="1" stop-color="#575756" stop-opacity="0.4"/></linearGradient><linearGradient id="Namnlös_övertoning_70" x1="253.23" y1="18.84" x2="79.14" y2="18.84" gradientUnits="userSpaceOnUse"><stop offset="0" stop-color="#f7da0b"/><stop offset="0.1" stop-color="#f1d50b" stop-opacity="0.98"/><stop offset="0.23" stop-color="#e1c70d" stop-opacity="0.94"/><stop offset="0.38" stop-color="#c6b00f" stop-opacity="0.87"/><stop offset="0.55" stop-color="#a18f11" stop-opacity="0.76"/><stop offset="0.73" stop-color="#716615" stop-opacity="0.63"/><stop offset="0.92" stop-color="#383419" stop-opacity="0.47"/><stop offset="1" stop-color="#1d1d1b" stop-opacity="0.4"/></linearGradient><linearGradient id="Namnlös_övertoning_73" x1="190.47" y1="55.62" x2="189.6" y2="427.99" gradientUnits="userSpaceOnUse"><stop offset="0" stop-color="#f7da0b"/><stop offset="1" stop-color="#1d1d1b" stop-opacity="0.4"/></linearGradient><linearGradient id="Namnlös_övertoning_21" x1="-105.18" y1="339.22" x2="973.8" y2="-459.03" gradientUnits="userSpaceOnUse"><stop offset="0.21" stop-color="#f7da0b"/><stop offset="1" stop-color="#1d1d1b" stop-opacity="0.4"/></linearGradient></defs><title>logo_yellow</title><rect class="cls-1" width="299.38" height="300"/><g id="cirklar"><path class="cls-2" d="M225,150.08a74.52,74.52,0,1,1-74.52-74.51V53.1a97,97,0,1,0,97,97Z"/><path class="cls-3" d="M225,150.08a74.52,74.52,0,1,1-74.52-74.51V53.1a97,97,0,1,0,97,97Z"/><path class="cls-2" d="M264.89,150.08A114.43,114.43,0,1,1,150.47,35.66V1.17C68.36,1.17,1.55,68,1.55,150.08S68.36,299,150.47,299s148.91-66.8,148.91-148.92Z"/><path class="cls-4" d="M264.89,150.08A114.43,114.43,0,1,1,150.47,35.66V1.17C68.36,1.17,1.55,68,1.55,150.08S68.36,299,150.47,299s148.91-66.8,148.91-148.92Z"/></g><g id="gul"><rect class="cls-5" x="192.34" y="1.17" width="72.55" height="35.35"/><rect class="cls-6" x="192.34" y="1.17" width="72.55" height="35.35"/><rect class="cls-5" x="177.28" y="1.17" width="26.29" height="148.92"/><rect class="cls-7" x="177.28" y="1.17" width="26.29" height="148.92"/><circle class="cls-5" cx="150.47" cy="150.08" r="53.1"/><circle class="cls-8" cx="150.47" cy="150.08" r="53.1"/></g></svg>